<svg width="24" height="24" viewBox="0 0 24 24" fill="none" xmlns="http://www.w3.org/2000/svg">
<path d="M2 14L5.23309 16.4248C5.66178 16.7463 6.26772 16.6728 6.60705 16.2581L15 6" stroke="#5A657B" stroke-width="2" stroke-linecap="round"/>
<path fill-rule="evenodd" clip-rule="evenodd" d="M9.95117 15.3293L11.8529 16.8507C12.5375 17.3984 13.5355 17.293 14.0907 16.6144L22.4644 6.37994C22.6742 6.12348 22.6364 5.74546 22.38 5.53563C22.1235 5.32579 21.7455 5.36359 21.5356 5.62006L13.162 15.8546C13.0231 16.0242 12.7737 16.0505 12.6025 15.9136L10.7111 14.4005L9.95117 15.3293Z" fill="#7E869E" fill-opacity="0.25"/>
<path d="M11.8529 16.8507L12.1652 16.4602H12.1652L11.8529 16.8507ZM9.95117 15.3293L9.56419 15.0127L9.24408 15.4039L9.63882 15.7197L9.95117 15.3293ZM14.0907 16.6144L14.4777 16.9311L14.0907 16.6144ZM22.4644 6.37994L22.8514 6.69656V6.69656L22.4644 6.37994ZM21.5356 5.62006L21.1487 5.30344L21.1487 5.30344L21.5356 5.62006ZM13.162 15.8546L12.775 15.5379L12.775 15.5379L13.162 15.8546ZM12.6025 15.9136L12.9148 15.5232L12.9148 15.5232L12.6025 15.9136ZM10.7111 14.4005L11.0235 14.0101L10.6373 13.7011L10.3241 14.0839L10.7111 14.4005ZM12.1652 16.4602L10.2635 14.9389L9.63882 15.7197L11.5405 17.2411L12.1652 16.4602ZM13.7037 16.2978C13.322 16.7644 12.6359 16.8368 12.1652 16.4602L11.5405 17.2411C12.4391 17.96 13.749 17.8217 14.4777 16.9311L13.7037 16.2978ZM22.0774 6.06332L13.7037 16.2978L14.4777 16.9311L22.8514 6.69656L22.0774 6.06332ZM22.0633 5.9226C22.1061 5.95758 22.1124 6.02058 22.0774 6.06332L22.8514 6.69656C23.2361 6.22637 23.1668 5.53335 22.6966 5.14865L22.0633 5.9226ZM21.9226 5.93668C21.9576 5.89393 22.0206 5.88763 22.0633 5.9226L22.6966 5.14865C22.2264 4.76395 21.5334 4.83325 21.1487 5.30344L21.9226 5.93668ZM13.5489 16.1712L21.9226 5.93668L21.1487 5.30344L12.775 15.5379L13.5489 16.1712ZM12.2901 16.304C12.6753 16.6121 13.2366 16.5529 13.5489 16.1712L12.775 15.5379C12.8097 15.4955 12.872 15.4889 12.9148 15.5232L12.2901 16.304ZM10.3988 14.7909L12.2901 16.304L12.9148 15.5232L11.0235 14.0101L10.3988 14.7909ZM10.3241 14.0839L9.56419 15.0127L10.3382 15.6459L11.0981 14.7171L10.3241 14.0839Z" fill="#D2D2D2"/>
</svg>
