<svg width="65" height="67" viewBox="0 0 65 67" fill="none" xmlns="http://www.w3.org/2000/svg">
<g filter="url(#filter0_d_949_2698)">
<rect x="5" y="10" width="50" height="50" rx="25" fill="#FFF8F8"/>
<path fill-rule="evenodd" clip-rule="evenodd" d="M30 25C24.4771 25 20 29.1712 20 34.3168C20 37.2488 21.4542 39.864 23.7267 41.5719V45.1242L27.1316 43.2439C28.0403 43.497 29.003 43.6335 30 43.6335C35.5229 43.6335 40 39.4623 40 34.3168C40 29.1712 35.5229 25 30 25ZM30.9938 37.5466L28.4472 34.8137L23.4783 37.5466L28.9441 31.7081L31.5528 34.441L36.4596 31.7081L30.9938 37.5466Z" fill="#C3CAD9"/>
</g>
<rect x="45" y="10" width="10" height="10" rx="5" fill="#3361FF"/>
<defs>
<filter id="filter0_d_949_2698" x="0" y="7" width="60" height="60" filterUnits="userSpaceOnUse" color-interpolation-filters="sRGB">
<feFlood flood-opacity="0" result="BackgroundImageFix"/>
<feColorMatrix in="SourceAlpha" type="matrix" values="0 0 0 0 0 0 0 0 0 0 0 0 0 0 0 0 0 0 127 0" result="hardAlpha"/>
<feOffset dy="2"/>
<feGaussianBlur stdDeviation="2.5"/>
<feColorMatrix type="matrix" values="0 0 0 0 0.14902 0 0 0 0 0.2 0 0 0 0 0.301961 0 0 0 0.03 0"/>
<feBlend mode="normal" in2="BackgroundImageFix" result="effect1_dropShadow_949_2698"/>
<feBlend mode="normal" in="SourceGraphic" in2="effect1_dropShadow_949_2698" result="shape"/>
</filter>
</defs>
</svg>
