<svg width="21" height="20" viewBox="0 0 21 20" fill="none" xmlns="http://www.w3.org/2000/svg">
<path d="M10.9999 0C9.68665 0 8.38629 0.258658 7.17303 0.761205C5.95978 1.26375 4.85738 2.00035 3.9288 2.92893C2.05343 4.8043 0.999866 7.34784 0.999866 10C0.991124 12.3091 1.79066 14.5485 3.25987 16.33L1.25987 18.33C1.12111 18.4706 1.02711 18.6492 0.989738 18.8432C0.952364 19.0372 0.973287 19.2379 1.04987 19.42C1.13292 19.5999 1.26757 19.7511 1.43671 19.8544C1.60586 19.9577 1.80187 20.0083 1.99987 20H10.9999C13.652 20 16.1956 18.9464 18.0709 17.0711C19.9463 15.1957 20.9999 12.6522 20.9999 10C20.9999 7.34784 19.9463 4.8043 18.0709 2.92893C16.1956 1.05357 13.652 0 10.9999 0ZM10.9999 18H4.40987L5.33987 17.07C5.52612 16.8826 5.63066 16.6292 5.63066 16.365C5.63066 16.1008 5.52612 15.8474 5.33987 15.66C4.03045 14.352 3.21504 12.6305 3.03256 10.7888C2.85007 8.94705 3.31181 7.09901 4.33909 5.55952C5.36638 4.02004 6.89566 2.88436 8.66638 2.34597C10.4371 1.80759 12.3397 1.8998 14.0501 2.60691C15.7604 3.31402 17.1727 4.59227 18.0463 6.22389C18.9199 7.85551 19.2007 9.73954 18.841 11.555C18.4813 13.3705 17.5032 15.005 16.0734 16.1802C14.6436 17.3554 12.8506 17.9985 10.9999 18ZM15.9999 9H5.99987C5.73465 9 5.4803 9.10536 5.29276 9.29289C5.10522 9.48043 4.99987 9.73478 4.99987 10C4.99987 10.2652 5.10522 10.5196 5.29276 10.7071C5.4803 10.8946 5.73465 11 5.99987 11H15.9999C16.2651 11 16.5194 10.8946 16.707 10.7071C16.8945 10.5196 16.9999 10.2652 16.9999 10C16.9999 9.73478 16.8945 9.48043 16.707 9.29289C16.5194 9.10536 16.2651 9 15.9999 9ZM13.9999 13H7.99987C7.73465 13 7.4803 13.1054 7.29276 13.2929C7.10522 13.4804 6.99987 13.7348 6.99987 14C6.99987 14.2652 7.10522 14.5196 7.29276 14.7071C7.4803 14.8946 7.73465 15 7.99987 15H13.9999C14.2651 15 14.5194 14.8946 14.707 14.7071C14.8945 14.5196 14.9999 14.2652 14.9999 14C14.9999 13.7348 14.8945 13.4804 14.707 13.2929C14.5194 13.1054 14.2651 13 13.9999 13ZM7.99987 7H13.9999C14.2651 7 14.5194 6.89464 14.707 6.70711C14.8945 6.51957 14.9999 6.26522 14.9999 6C14.9999 5.73478 14.8945 5.48043 14.707 5.29289C14.5194 5.10536 14.2651 5 13.9999 5H7.99987C7.73465 5 7.4803 5.10536 7.29276 5.29289C7.10522 5.48043 6.99987 5.73478 6.99987 6C6.99987 6.26522 7.10522 6.51957 7.29276 6.70711C7.4803 6.89464 7.73465 7 7.99987 7Z" fill="#4D5E80"/>
</svg>
