<svg width="21" height="20" viewBox="0 0 21 20" fill="none" xmlns="http://www.w3.org/2000/svg">
<path d="M19.4702 6.99999C19.668 6.99999 19.8613 6.94134 20.0258 6.83146C20.1902 6.72158 20.3184 6.5654 20.3941 6.38267C20.4698 6.19995 20.4896 5.99888 20.451 5.8049C20.4124 5.61092 20.3172 5.43274 20.1773 5.29288C20.0375 5.15303 19.8593 5.05779 19.6653 5.0192C19.4713 4.98062 19.2703 5.00042 19.0875 5.07611C18.9048 5.1518 18.7486 5.27997 18.6387 5.44442C18.5289 5.60887 18.4702 5.80221 18.4702 5.99999C18.4702 6.26521 18.5756 6.51956 18.7631 6.7071C18.9506 6.89463 19.205 6.99999 19.4702 6.99999ZM16.4702 6.99999C16.668 6.99999 16.8613 6.94134 17.0258 6.83146C17.1902 6.72158 17.3184 6.5654 17.3941 6.38267C17.4698 6.19995 17.4896 5.99888 17.451 5.8049C17.4124 5.61092 17.3172 5.43274 17.1773 5.29288C17.0375 5.15303 16.8593 5.05779 16.6653 5.0192C16.4713 4.98062 16.2703 5.00042 16.0875 5.07611C15.9048 5.1518 15.7486 5.27997 15.6387 5.44442C15.5289 5.60887 15.4702 5.80221 15.4702 5.99999C15.4702 6.26521 15.5756 6.51956 15.7631 6.7071C15.9506 6.89463 16.205 6.99999 16.4702 6.99999ZM13.4702 6.99999C13.668 6.99999 13.8613 6.94134 14.0258 6.83146C14.1902 6.72158 14.3184 6.5654 14.3941 6.38267C14.4698 6.19995 14.4896 5.99888 14.451 5.8049C14.4124 5.61092 14.3172 5.43274 14.1773 5.29288C14.0375 5.15303 13.8593 5.05779 13.6653 5.0192C13.4713 4.98062 13.2703 5.00042 13.0875 5.07611C12.9048 5.1518 12.7486 5.27997 12.6387 5.44442C12.5289 5.60887 12.4702 5.80221 12.4702 5.99999C12.4702 6.13131 12.4961 6.26135 12.5463 6.38267C12.5966 6.504 12.6702 6.61424 12.7631 6.7071C12.856 6.79996 12.9662 6.87361 13.0875 6.92387C13.2088 6.97412 13.3389 6.99999 13.4702 6.99999ZM17.9102 11C17.6902 11 17.4602 10.93 17.2402 10.88C16.7947 10.7818 16.3569 10.6515 15.9302 10.49C15.4663 10.3212 14.9564 10.33 14.4985 10.5146C14.0407 10.6992 13.6673 11.0466 13.4502 11.49L13.2302 11.94C12.2547 11.3958 11.3567 10.7231 10.5602 9.93999C9.78088 9.14391 9.10856 8.24973 8.56021 7.27999L9.00021 6.99999C9.44357 6.78291 9.79099 6.40952 9.9756 5.95168C10.1602 5.49384 10.169 4.9839 10.0002 4.51999C9.84143 4.09241 9.71114 3.65479 9.61021 3.20999C9.56021 2.97999 9.52021 2.75999 9.49021 2.52999C9.36877 1.82561 8.99983 1.18773 8.44983 0.731229C7.89983 0.274727 7.2049 0.029599 6.49021 0.0399902H3.49021C3.06745 0.0394364 2.64936 0.128238 2.26333 0.300574C1.87729 0.47291 1.53204 0.724888 1.25021 1.03999C0.963897 1.36249 0.750481 1.74292 0.624505 2.15536C0.498529 2.5678 0.462955 3.00256 0.520208 3.42999C1.04692 7.61703 2.95259 11.5096 5.93661 14.4936C8.92063 17.4776 12.8132 19.3833 17.0002 19.91C17.13 19.9199 17.2604 19.9199 17.3902 19.91C18.1859 19.91 18.9489 19.5939 19.5115 19.0313C20.0741 18.4687 20.3902 17.7056 20.3902 16.91V13.91C20.3798 13.2122 20.1265 12.5399 19.6738 12.0087C19.2212 11.4776 18.5975 11.1209 17.9102 11ZM18.4002 17C18.4018 17.1449 18.372 17.2885 18.3126 17.4208C18.2532 17.553 18.1658 17.6708 18.0564 17.7659C17.9471 17.861 17.8183 17.9312 17.6791 17.9717C17.5399 18.0121 17.3935 18.0217 17.2502 18C13.5164 17.5128 10.0473 15.8081 7.38021 13.15C4.71521 10.4648 3.01345 6.97343 2.54021 3.21999C2.51848 3.07332 2.52964 2.92366 2.57288 2.78184C2.61612 2.64002 2.69035 2.50959 2.79021 2.39999C2.8828 2.29458 2.99654 2.20983 3.12403 2.15125C3.25152 2.09267 3.38991 2.06158 3.53021 2.05999H6.53021C6.76275 2.05482 6.98983 2.13087 7.17235 2.27506C7.35487 2.41925 7.48142 2.62256 7.53021 2.84999C7.57021 3.12332 7.62021 3.39332 7.68021 3.65999C7.79573 4.18713 7.94947 4.70517 8.14021 5.20999L6.74021 5.85999C6.6205 5.91491 6.51283 5.99294 6.42337 6.08959C6.3339 6.18623 6.26441 6.2996 6.21888 6.42318C6.17335 6.54677 6.15268 6.67812 6.15806 6.80971C6.16343 6.9413 6.19475 7.07054 6.25021 7.18999C7.68941 10.2727 10.1675 12.7508 13.2502 14.19C13.4937 14.29 13.7667 14.29 14.0102 14.19C14.2584 14.0976 14.4597 13.9106 14.5702 13.67L15.2002 12.27C15.7172 12.4549 16.2448 12.6085 16.7802 12.73C17.0402 12.79 17.3202 12.84 17.5902 12.88C17.8158 12.9308 18.0168 13.0582 18.159 13.2405C18.3012 13.4229 18.3759 13.6488 18.3702 13.88L18.4002 17Z" fill="#4D5E80"/>
</svg>
